<svg width="595" height="160" viewBox="0 0 595 160" fill="none" xmlns="http://www.w3.org/2000/svg">
  <style>
    * {
      transform-origin: center;
      transform-box: fill-box;
    }

    .animate-ping {
      animation: ping 1s cubic-bezier(0, 0, 0.2, 1) infinite;
    }

    .animate-fade-in {
      animation: fade-in 0.64s cubic-bezier(0, 0, 0.2, 1) forwards;
    }

    .animate-fade-in-bottom {
      animation: fade-in-bottom 0.64s cubic-bezier(0, 0, 0.2, 1) forwards;
    }

    .animate-fade-in-right {
      animation: fade-in-right 0.64s cubic-bezier(0, 0, 0.2, 1) forwards;
    }

    .title {
      opacity: 0;
      animation-delay: 0.4s;
    }

    .description {
      opacity: 0;
      animation-delay: 0.7s;
    }

    .additional {
      opacity: 0;
      animation-delay: 1s;
    }

    .additional__indicator {
      opacity: 0;
      animation-delay: 1.6s;
    }

    @keyframes ping {

      75%,
      100% {
        transform: scale(2);
        opacity: 0;
      }
    }

    @keyframes fade-in {
      from {
        opacity: 0;
      }

      to {
        opacity: 1;
      }
    }

    @keyframes fade-in-bottom {
      from {
        opacity: 0;
        transform: translate3d(0, -20px, 0);
      }

      to {
        opacity: 1;
        transform: translate3d(0, 0, 0);
      }
    }

    @keyframes fade-in-right {
      from {
        opacity: 0;
        transform: translate3d(-20px, 0, 0);
      }

      to {
        opacity: 1;
        transform: translate3d(0, 0, 0);
      }
    }
  </style>
  <g clip-path="url(#clip0_1_241)">
    <g opacity="0.92" filter="url(#filter0_f_1_241)">
      <path fill-rule="evenodd" clip-rule="evenodd"
        d="M294.025 -195.397C371.794 -199.207 417.023 -166.547 478.556 -148.54C549.444 -127.795 653.905 -123.815 675.717 -83.6979C699.621 -39.7355 651.378 11.8858 588.324 53.3407C522.583 96.5619 431.59 129.344 329.788 143.735C219.591 159.312 100.989 162.573 17.727 133.999C-66.2641 105.174 -107.423 52.1926 -95.8451 -2.3348C-85.4966 -51.0729 -2.38714 -91.1162 73.5049 -128.698C137.254 -160.266 210.104 -191.286 294.025 -195.397Z"
        fill="url(#paint0_angular_1_241)" fill-opacity="0.72" />
    </g>
    <line y1="14.2955" x2="595" y2="14.2955" stroke="black" stroke-opacity="0.07" stroke-width="0.5"
      stroke-dasharray="2 2" />
    <line y1="28.8409" x2="595" y2="28.8409" stroke="black" stroke-opacity="0.07" stroke-width="0.5"
      stroke-dasharray="2 2" />
    <line y1="43.3864" x2="595" y2="43.3864" stroke="black" stroke-opacity="0.07" stroke-width="0.5"
      stroke-dasharray="2 2" />
    <line y1="57.9318" x2="595" y2="57.9318" stroke="black" stroke-opacity="0.07" stroke-width="0.5"
      stroke-dasharray="2 2" />
    <line y1="72.4773" x2="595" y2="72.4773" stroke="black" stroke-opacity="0.07" stroke-width="0.5"
      stroke-dasharray="2 2" />
    <line y1="87.0227" x2="595" y2="87.0227" stroke="black" stroke-opacity="0.07" stroke-width="0.5"
      stroke-dasharray="2 2" />
    <line y1="101.568" x2="595" y2="101.568" stroke="black" stroke-opacity="0.07" stroke-width="0.5"
      stroke-dasharray="2 2" />
    <line y1="116.114" x2="595" y2="116.114" stroke="black" stroke-opacity="0.07" stroke-width="0.5"
      stroke-dasharray="2 2" />
    <line y1="130.659" x2="595" y2="130.659" stroke="black" stroke-opacity="0.07" stroke-width="0.5"
      stroke-dasharray="2 2" />
    <line y1="145.205" x2="595" y2="145.205" stroke="black" stroke-opacity="0.07" stroke-width="0.5"
      stroke-dasharray="2 2" />
    <line y1="159.75" x2="595" y2="159.75" stroke="black" stroke-opacity="0.07" stroke-width="0.5"
      stroke-dasharray="2 2" />
    <line x1="0.25" y1="1.09278e-08" x2="0.249992" y2="176" stroke="black" stroke-opacity="0.07" stroke-width="0.5"
      stroke-dasharray="2 2" />
    <line x1="16.25" y1="1.09278e-08" x2="16.25" y2="176" stroke="black" stroke-opacity="0.07" stroke-width="0.5"
      stroke-dasharray="2 2" />
    <line x1="32.25" y1="1.09278e-08" x2="32.25" y2="176" stroke="black" stroke-opacity="0.07" stroke-width="0.5"
      stroke-dasharray="2 2" />
    <line x1="48.25" y1="1.09278e-08" x2="48.25" y2="176" stroke="black" stroke-opacity="0.07" stroke-width="0.5"
      stroke-dasharray="2 2" />
    <line x1="64.25" y1="1.09278e-08" x2="64.25" y2="176" stroke="black" stroke-opacity="0.07" stroke-width="0.5"
      stroke-dasharray="2 2" />
    <line x1="80.25" y1="1.09278e-08" x2="80.25" y2="176" stroke="black" stroke-opacity="0.07" stroke-width="0.5"
      stroke-dasharray="2 2" />
    <line x1="96.25" y1="1.09278e-08" x2="96.25" y2="176" stroke="black" stroke-opacity="0.07" stroke-width="0.5"
      stroke-dasharray="2 2" />
    <line x1="112.25" y1="1.09278e-08" x2="112.25" y2="176" stroke="black" stroke-opacity="0.07" stroke-width="0.5"
      stroke-dasharray="2 2" />
    <line x1="128.25" y1="1.09278e-08" x2="128.25" y2="176" stroke="black" stroke-opacity="0.07" stroke-width="0.5"
      stroke-dasharray="2 2" />
    <line x1="144.25" y1="1.09278e-08" x2="144.25" y2="176" stroke="black" stroke-opacity="0.07" stroke-width="0.5"
      stroke-dasharray="2 2" />
    <line x1="160.25" y1="1.09278e-08" x2="160.25" y2="176" stroke="black" stroke-opacity="0.07" stroke-width="0.5"
      stroke-dasharray="2 2" />
    <line x1="176.25" y1="1.09278e-08" x2="176.25" y2="176" stroke="black" stroke-opacity="0.07" stroke-width="0.5"
      stroke-dasharray="2 2" />
    <line x1="192.25" y1="1.09278e-08" x2="192.25" y2="176" stroke="black" stroke-opacity="0.07" stroke-width="0.5"
      stroke-dasharray="2 2" />
    <line x1="208.25" y1="1.09278e-08" x2="208.25" y2="176" stroke="black" stroke-opacity="0.07" stroke-width="0.5"
      stroke-dasharray="2 2" />
    <line x1="224.25" y1="1.09278e-08" x2="224.25" y2="176" stroke="black" stroke-opacity="0.07" stroke-width="0.5"
      stroke-dasharray="2 2" />
    <line x1="240.25" y1="1.09278e-08" x2="240.25" y2="176" stroke="black" stroke-opacity="0.07" stroke-width="0.5"
      stroke-dasharray="2 2" />
    <line x1="256.25" y1="1.09278e-08" x2="256.25" y2="176" stroke="black" stroke-opacity="0.07" stroke-width="0.5"
      stroke-dasharray="2 2" />
    <line x1="272.25" y1="1.09278e-08" x2="272.25" y2="176" stroke="black" stroke-opacity="0.07" stroke-width="0.5"
      stroke-dasharray="2 2" />
    <line x1="288.25" y1="1.09278e-08" x2="288.25" y2="176" stroke="black" stroke-opacity="0.07" stroke-width="0.5"
      stroke-dasharray="2 2" />
    <line x1="304.25" y1="1.09278e-08" x2="304.25" y2="176" stroke="black" stroke-opacity="0.07" stroke-width="0.5"
      stroke-dasharray="2 2" />
    <line x1="320.25" y1="1.09278e-08" x2="320.25" y2="176" stroke="black" stroke-opacity="0.07" stroke-width="0.5"
      stroke-dasharray="2 2" />
    <line x1="336.25" y1="1.09278e-08" x2="336.25" y2="176" stroke="black" stroke-opacity="0.07" stroke-width="0.5"
      stroke-dasharray="2 2" />
    <line x1="352.25" y1="1.09278e-08" x2="352.25" y2="176" stroke="black" stroke-opacity="0.07" stroke-width="0.5"
      stroke-dasharray="2 2" />
    <line x1="368.25" y1="1.09278e-08" x2="368.25" y2="176" stroke="black" stroke-opacity="0.07" stroke-width="0.5"
      stroke-dasharray="2 2" />
    <line x1="384.25" y1="1.09278e-08" x2="384.25" y2="176" stroke="black" stroke-opacity="0.07" stroke-width="0.5"
      stroke-dasharray="2 2" />
    <line x1="400.25" y1="1.09278e-08" x2="400.25" y2="176" stroke="black" stroke-opacity="0.07" stroke-width="0.5"
      stroke-dasharray="2 2" />
    <line x1="416.25" y1="1.09278e-08" x2="416.25" y2="176" stroke="black" stroke-opacity="0.07" stroke-width="0.5"
      stroke-dasharray="2 2" />
    <line x1="432.25" y1="1.09278e-08" x2="432.25" y2="176" stroke="black" stroke-opacity="0.07" stroke-width="0.5"
      stroke-dasharray="2 2" />
    <line x1="448.25" y1="1.09278e-08" x2="448.25" y2="176" stroke="black" stroke-opacity="0.07" stroke-width="0.5"
      stroke-dasharray="2 2" />
    <line x1="464.25" y1="1.09278e-08" x2="464.25" y2="176" stroke="black" stroke-opacity="0.07" stroke-width="0.5"
      stroke-dasharray="2 2" />
    <line x1="480.25" y1="1.09278e-08" x2="480.25" y2="176" stroke="black" stroke-opacity="0.07" stroke-width="0.5"
      stroke-dasharray="2 2" />
    <line x1="496.25" y1="1.09278e-08" x2="496.25" y2="176" stroke="black" stroke-opacity="0.07" stroke-width="0.5"
      stroke-dasharray="2 2" />
    <line x1="512.25" y1="1.09278e-08" x2="512.25" y2="176" stroke="black" stroke-opacity="0.07" stroke-width="0.5"
      stroke-dasharray="2 2" />
    <line x1="528.25" y1="1.09278e-08" x2="528.25" y2="176" stroke="black" stroke-opacity="0.07" stroke-width="0.5"
      stroke-dasharray="2 2" />
    <line x1="544.25" y1="1.09278e-08" x2="544.25" y2="176" stroke="black" stroke-opacity="0.07" stroke-width="0.5"
      stroke-dasharray="2 2" />
    <line x1="560.25" y1="1.09278e-08" x2="560.25" y2="176" stroke="black" stroke-opacity="0.07" stroke-width="0.5"
      stroke-dasharray="2 2" />
    <line x1="576.25" y1="1.09278e-08" x2="576.25" y2="176" stroke="black" stroke-opacity="0.07" stroke-width="0.5"
      stroke-dasharray="2 2" />
    <line x1="592.25" y1="1.09278e-08" x2="592.25" y2="176" stroke="black" stroke-opacity="0.07" stroke-width="0.5"
      stroke-dasharray="2 2" />
    <rect width="595" height="160" fill="url(#paint1_linear_1_241)" />
    <line y1="159.75" x2="595" y2="159.75" stroke="transparent" stroke-width="0.5" />
  </g>
  <!-- title -->
  <g class="animate-fade-in-bottom title">
    <path
      d="M125.772 88V56.71H132.282V88H125.772ZM140.057 69.52L139.301 56.71H144.761L144.047 69.52H140.057ZM151.355 88V65.068H157.235V70.654L156.605 69.73C156.941 67.966 157.753 66.664 159.041 65.824C160.329 64.984 161.869 64.564 163.661 64.564C165.565 64.564 167.231 65.054 168.659 66.034C170.115 66.986 171.025 68.274 171.389 69.898L169.583 70.066C170.339 68.19 171.417 66.804 172.817 65.908C174.217 65.012 175.855 64.564 177.731 64.564C179.383 64.564 180.839 64.928 182.099 65.656C183.387 66.384 184.395 67.406 185.123 68.722C185.851 70.01 186.215 71.522 186.215 73.258V88H179.915V74.602C179.915 73.706 179.747 72.936 179.411 72.292C179.103 71.648 178.655 71.144 178.067 70.78C177.479 70.416 176.765 70.234 175.925 70.234C175.113 70.234 174.399 70.416 173.783 70.78C173.195 71.144 172.733 71.648 172.397 72.292C172.089 72.936 171.935 73.706 171.935 74.602V88H165.635V74.602C165.635 73.706 165.467 72.936 165.131 72.292C164.823 71.648 164.375 71.144 163.787 70.78C163.199 70.416 162.485 70.234 161.645 70.234C160.833 70.234 160.119 70.416 159.503 70.78C158.915 71.144 158.453 71.648 158.117 72.292C157.809 72.936 157.655 73.706 157.655 74.602V88H151.355Z"
      fill="#334155" />
    <path
      d="M197.772 88V56.71H204.282V82.33H217.512V88H197.772ZM220.279 88V65.068H226.579V88H220.279ZM220.279 63.01V56.71H226.579V63.01H220.279ZM231.189 88V65.068H237.069V70.57L236.649 69.772C237.153 67.84 237.979 66.538 239.127 65.866C240.303 65.166 241.689 64.816 243.285 64.816H244.629V70.276H242.655C241.115 70.276 239.869 70.752 238.917 71.704C237.965 72.628 237.489 73.944 237.489 75.652V88H231.189ZM258.772 88.504C256.504 88.504 254.432 87.986 252.556 86.95C250.708 85.914 249.224 84.5 248.104 82.708C247.012 80.888 246.466 78.83 246.466 76.534C246.466 74.21 247.012 72.152 248.104 70.36C249.224 68.568 250.708 67.154 252.556 66.118C254.432 65.082 256.504 64.564 258.772 64.564C261.04 64.564 263.098 65.082 264.946 66.118C266.794 67.154 268.264 68.568 269.356 70.36C270.476 72.152 271.036 74.21 271.036 76.534C271.036 78.83 270.476 80.888 269.356 82.708C268.264 84.5 266.794 85.914 264.946 86.95C263.098 87.986 261.04 88.504 258.772 88.504ZM258.772 82.834C259.92 82.834 260.914 82.568 261.754 82.036C262.622 81.504 263.294 80.762 263.77 79.81C264.274 78.858 264.526 77.766 264.526 76.534C264.526 75.302 264.274 74.224 263.77 73.3C263.294 72.348 262.622 71.606 261.754 71.074C260.914 70.514 259.92 70.234 258.772 70.234C257.624 70.234 256.616 70.514 255.748 71.074C254.88 71.606 254.194 72.348 253.69 73.3C253.214 74.224 252.976 75.302 252.976 76.534C252.976 77.766 253.214 78.858 253.69 79.81C254.194 80.762 254.88 81.504 255.748 82.036C256.616 82.568 257.624 82.834 258.772 82.834ZM274.748 88V65.068H280.628V69.604L280.292 68.596C280.824 67.224 281.678 66.216 282.854 65.572C284.058 64.9 285.458 64.564 287.054 64.564C288.79 64.564 290.302 64.928 291.59 65.656C292.906 66.384 293.928 67.406 294.656 68.722C295.384 70.01 295.748 71.522 295.748 73.258V88H289.448V74.602C289.448 73.706 289.266 72.936 288.902 72.292C288.566 71.648 288.076 71.144 287.432 70.78C286.816 70.416 286.088 70.234 285.248 70.234C284.436 70.234 283.708 70.416 283.064 70.78C282.42 71.144 281.916 71.648 281.552 72.292C281.216 72.936 281.048 73.706 281.048 74.602V88H274.748Z"
      fill="#7733FF" />
    <path
      d="M304.462 88L315.046 56.71H323.698L334.282 88H327.184L325.084 81.616H313.618L311.518 88H304.462ZM315.424 75.946H323.278L318.49 61.162H320.254L315.424 75.946ZM349.924 88.504C348.356 88.504 346.9 88.224 345.556 87.664C344.24 87.076 343.176 86.222 342.364 85.102L342.952 83.8V88H337.072V56.206H343.372V69.436L342.406 68.176C343.162 67.028 344.184 66.146 345.472 65.53C346.788 64.886 348.286 64.564 349.966 64.564C352.15 64.564 354.124 65.096 355.888 66.16C357.652 67.224 359.052 68.666 360.088 70.486C361.124 72.278 361.642 74.294 361.642 76.534C361.642 78.746 361.124 80.762 360.088 82.582C359.08 84.402 357.694 85.844 355.93 86.908C354.166 87.972 352.164 88.504 349.924 88.504ZM349.168 82.834C350.344 82.834 351.38 82.568 352.276 82.036C353.172 81.504 353.872 80.762 354.376 79.81C354.88 78.858 355.132 77.766 355.132 76.534C355.132 75.302 354.88 74.224 354.376 73.3C353.872 72.348 353.172 71.606 352.276 71.074C351.38 70.514 350.344 70.234 349.168 70.234C348.048 70.234 347.04 70.5 346.144 71.032C345.276 71.564 344.59 72.306 344.086 73.258C343.61 74.21 343.372 75.302 343.372 76.534C343.372 77.766 343.61 78.858 344.086 79.81C344.59 80.762 345.276 81.504 346.144 82.036C347.04 82.568 348.048 82.834 349.168 82.834ZM373.563 88.504C371.715 88.504 370.133 88.112 368.817 87.328C367.529 86.516 366.549 85.396 365.877 83.968C365.205 82.54 364.869 80.874 364.869 78.97V65.068H371.169V78.466C371.169 79.334 371.337 80.104 371.673 80.776C372.037 81.42 372.541 81.924 373.185 82.288C373.829 82.652 374.557 82.834 375.369 82.834C376.209 82.834 376.937 82.652 377.553 82.288C378.197 81.924 378.687 81.42 379.023 80.776C379.387 80.104 379.569 79.334 379.569 78.466V65.068H385.869V88H379.989V83.464L380.325 84.472C379.793 85.844 378.925 86.866 377.721 87.538C376.545 88.182 375.159 88.504 373.563 88.504ZM401.52 88.252C398.748 88.252 396.592 87.51 395.052 86.026C393.54 84.514 392.784 82.414 392.784 79.726V70.528H388.92V65.068H389.13C390.306 65.068 391.202 64.774 391.818 64.186C392.462 63.598 392.784 62.716 392.784 61.54V59.86H399.084V65.068H404.46V70.528H399.084V79.306C399.084 80.09 399.224 80.748 399.504 81.28C399.784 81.784 400.218 82.162 400.806 82.414C401.394 82.666 402.122 82.792 402.99 82.792C403.186 82.792 403.41 82.778 403.662 82.75C403.914 82.722 404.18 82.694 404.46 82.666V88C404.04 88.056 403.564 88.112 403.032 88.168C402.5 88.224 401.996 88.252 401.52 88.252ZM421.004 88.504C419.436 88.504 417.98 88.224 416.636 87.664C415.32 87.076 414.256 86.222 413.444 85.102L414.032 83.8V88H408.152V56.206H414.452V69.436L413.486 68.176C414.242 67.028 415.264 66.146 416.552 65.53C417.868 64.886 419.366 64.564 421.046 64.564C423.23 64.564 425.204 65.096 426.968 66.16C428.732 67.224 430.132 68.666 431.168 70.486C432.204 72.278 432.722 74.294 432.722 76.534C432.722 78.746 432.204 80.762 431.168 82.582C430.16 84.402 428.774 85.844 427.01 86.908C425.246 87.972 423.244 88.504 421.004 88.504ZM420.248 82.834C421.424 82.834 422.46 82.568 423.356 82.036C424.252 81.504 424.952 80.762 425.456 79.81C425.96 78.858 426.212 77.766 426.212 76.534C426.212 75.302 425.96 74.224 425.456 73.3C424.952 72.348 424.252 71.606 423.356 71.074C422.46 70.514 421.424 70.234 420.248 70.234C419.128 70.234 418.12 70.5 417.224 71.032C416.356 71.564 415.67 72.306 415.166 73.258C414.69 74.21 414.452 75.302 414.452 76.534C414.452 77.766 414.69 78.858 415.166 79.81C415.67 80.762 416.356 81.504 417.224 82.036C418.12 82.568 419.128 82.834 420.248 82.834ZM444.644 88.504C442.796 88.504 441.214 88.112 439.898 87.328C438.61 86.516 437.63 85.396 436.958 83.968C436.286 82.54 435.95 80.874 435.95 78.97V65.068H442.25V78.466C442.25 79.334 442.418 80.104 442.754 80.776C443.118 81.42 443.622 81.924 444.266 82.288C444.91 82.652 445.638 82.834 446.45 82.834C447.29 82.834 448.018 82.652 448.634 82.288C449.278 81.924 449.768 81.42 450.104 80.776C450.468 80.104 450.65 79.334 450.65 78.466V65.068H456.95V88H451.07V83.464L451.406 84.472C450.874 85.844 450.006 86.866 448.802 87.538C447.626 88.182 446.24 88.504 444.644 88.504ZM461.554 88V56.206H467.854V88H461.554Z"
      fill="#334155" />
  </g>
  <!-- end of title -->
  <!-- subtitle -->
  <g class="animate-fade-in-bottom description">
    <path
      d="M194.913 108V99.805H200.105V100.795H195.991V103.446H199.72V104.436H195.991V108H194.913ZM200.872 108V102.071H201.873V103.16L201.763 103.006C201.902 102.669 202.115 102.419 202.401 102.258C202.687 102.089 203.035 102.005 203.446 102.005H203.809V102.973H203.292C202.874 102.973 202.537 103.105 202.28 103.369C202.023 103.626 201.895 103.992 201.895 104.469V108H200.872ZM207.446 108.132C206.874 108.132 206.364 107.996 205.917 107.725C205.469 107.454 205.117 107.083 204.861 106.614C204.604 106.137 204.476 105.606 204.476 105.019C204.476 104.425 204.6 103.897 204.85 103.435C205.106 102.973 205.451 102.61 205.884 102.346C206.324 102.075 206.815 101.939 207.358 101.939C207.798 101.939 208.186 102.02 208.524 102.181C208.868 102.335 209.158 102.548 209.393 102.819C209.635 103.083 209.818 103.387 209.943 103.732C210.075 104.069 210.141 104.421 210.141 104.788C210.141 104.869 210.133 104.96 210.119 105.063C210.111 105.158 210.1 105.25 210.086 105.338H205.224V104.458H209.492L209.008 104.854C209.074 104.473 209.037 104.132 208.898 103.831C208.758 103.53 208.553 103.292 208.282 103.116C208.01 102.94 207.702 102.852 207.358 102.852C207.013 102.852 206.698 102.94 206.412 103.116C206.126 103.292 205.902 103.545 205.741 103.875C205.587 104.198 205.524 104.583 205.554 105.03C205.524 105.463 205.59 105.844 205.752 106.174C205.92 106.497 206.155 106.75 206.456 106.933C206.764 107.109 207.097 107.197 207.457 107.197C207.853 107.197 208.186 107.105 208.458 106.922C208.729 106.739 208.949 106.504 209.118 106.218L209.976 106.658C209.858 106.929 209.675 107.179 209.426 107.406C209.184 107.626 208.894 107.802 208.557 107.934C208.227 108.066 207.856 108.132 207.446 108.132ZM214.203 108.132C213.631 108.132 213.121 107.996 212.674 107.725C212.226 107.454 211.874 107.083 211.618 106.614C211.361 106.137 211.233 105.606 211.233 105.019C211.233 104.425 211.357 103.897 211.607 103.435C211.863 102.973 212.208 102.61 212.641 102.346C213.081 102.075 213.572 101.939 214.115 101.939C214.555 101.939 214.943 102.02 215.281 102.181C215.625 102.335 215.915 102.548 216.15 102.819C216.392 103.083 216.575 103.387 216.7 103.732C216.832 104.069 216.898 104.421 216.898 104.788C216.898 104.869 216.89 104.96 216.876 105.063C216.868 105.158 216.857 105.25 216.843 105.338H211.981V104.458H216.249L215.765 104.854C215.831 104.473 215.794 104.132 215.655 103.831C215.515 103.53 215.31 103.292 215.039 103.116C214.767 102.94 214.459 102.852 214.115 102.852C213.77 102.852 213.455 102.94 213.169 103.116C212.883 103.292 212.659 103.545 212.498 103.875C212.344 104.198 212.281 104.583 212.311 105.03C212.281 105.463 212.347 105.844 212.509 106.174C212.677 106.497 212.912 106.75 213.213 106.933C213.521 107.109 213.854 107.197 214.214 107.197C214.61 107.197 214.943 107.105 215.215 106.922C215.486 106.739 215.706 106.504 215.875 106.218L216.733 106.658C216.615 106.929 216.432 107.179 216.183 107.406C215.941 107.626 215.651 107.802 215.314 107.934C214.984 108.066 214.613 108.132 214.203 108.132ZM218.231 108V99.673H219.254V108H218.231ZM222.58 108.132C222.191 108.132 221.846 108.062 221.546 107.923C221.252 107.776 221.021 107.578 220.853 107.329C220.684 107.072 220.6 106.779 220.6 106.449C220.6 106.134 220.666 105.851 220.798 105.602C220.937 105.345 221.15 105.129 221.436 104.953C221.729 104.777 222.096 104.652 222.536 104.579L224.736 104.216V105.074L222.767 105.404C222.385 105.47 222.107 105.591 221.931 105.767C221.762 105.943 221.678 106.159 221.678 106.416C221.678 106.658 221.773 106.86 221.964 107.021C222.162 107.182 222.407 107.263 222.701 107.263C223.075 107.263 223.397 107.186 223.669 107.032C223.947 106.871 224.164 106.654 224.318 106.383C224.479 106.112 224.56 105.811 224.56 105.481V103.974C224.56 103.651 224.439 103.391 224.197 103.193C223.962 102.988 223.65 102.885 223.262 102.885C222.924 102.885 222.624 102.973 222.36 103.149C222.103 103.318 221.912 103.545 221.788 103.831L220.897 103.369C221.007 103.098 221.183 102.856 221.425 102.643C221.667 102.423 221.949 102.251 222.272 102.126C222.594 102.001 222.932 101.939 223.284 101.939C223.738 101.939 224.138 102.027 224.483 102.203C224.827 102.372 225.095 102.61 225.286 102.918C225.484 103.219 225.583 103.571 225.583 103.974V108H224.582V106.878L224.769 106.944C224.644 107.179 224.475 107.384 224.263 107.56C224.05 107.736 223.801 107.875 223.515 107.978C223.229 108.081 222.917 108.132 222.58 108.132ZM227.169 108V102.071H228.17V103.226L228.005 103.127C228.152 102.753 228.386 102.463 228.709 102.258C229.039 102.045 229.424 101.939 229.864 101.939C230.289 101.939 230.667 102.034 230.997 102.225C231.334 102.416 231.598 102.68 231.789 103.017C231.987 103.354 232.086 103.736 232.086 104.161V108H231.052V104.491C231.052 104.161 230.993 103.882 230.876 103.655C230.759 103.428 230.59 103.252 230.37 103.127C230.157 102.995 229.912 102.929 229.633 102.929C229.354 102.929 229.105 102.995 228.885 103.127C228.672 103.252 228.504 103.431 228.379 103.666C228.254 103.893 228.192 104.168 228.192 104.491V108H227.169ZM236.3 108.132C235.72 108.132 235.203 107.996 234.749 107.725C234.301 107.454 233.949 107.083 233.693 106.614C233.436 106.145 233.308 105.617 233.308 105.03C233.308 104.436 233.436 103.908 233.693 103.446C233.949 102.984 234.301 102.617 234.749 102.346C235.203 102.075 235.72 101.939 236.3 101.939C236.688 101.939 237.051 102.009 237.389 102.148C237.726 102.287 238.023 102.474 238.28 102.709C238.536 102.944 238.723 103.219 238.841 103.534L237.928 103.974C237.788 103.666 237.576 103.417 237.29 103.226C237.004 103.028 236.674 102.929 236.3 102.929C235.94 102.929 235.614 103.021 235.321 103.204C235.035 103.387 234.807 103.637 234.639 103.952C234.47 104.267 234.386 104.63 234.386 105.041C234.386 105.437 234.47 105.796 234.639 106.119C234.807 106.434 235.035 106.684 235.321 106.867C235.614 107.05 235.94 107.142 236.3 107.142C236.674 107.142 237.004 107.047 237.29 106.856C237.576 106.658 237.788 106.398 237.928 106.075L238.841 106.537C238.723 106.845 238.536 107.12 238.28 107.362C238.023 107.597 237.726 107.784 237.389 107.923C237.051 108.062 236.688 108.132 236.3 108.132ZM242.906 108.132C242.334 108.132 241.824 107.996 241.377 107.725C240.929 107.454 240.577 107.083 240.321 106.614C240.064 106.137 239.936 105.606 239.936 105.019C239.936 104.425 240.06 103.897 240.31 103.435C240.566 102.973 240.911 102.61 241.344 102.346C241.784 102.075 242.275 101.939 242.818 101.939C243.258 101.939 243.646 102.02 243.984 102.181C244.328 102.335 244.618 102.548 244.853 102.819C245.095 103.083 245.278 103.387 245.403 103.732C245.535 104.069 245.601 104.421 245.601 104.788C245.601 104.869 245.593 104.96 245.579 105.063C245.571 105.158 245.56 105.25 245.546 105.338H240.684V104.458H244.952L244.468 104.854C244.534 104.473 244.497 104.132 244.358 103.831C244.218 103.53 244.013 103.292 243.742 103.116C243.47 102.94 243.162 102.852 242.818 102.852C242.473 102.852 242.158 102.94 241.872 103.116C241.586 103.292 241.362 103.545 241.201 103.875C241.047 104.198 240.984 104.583 241.014 105.03C240.984 105.463 241.05 105.844 241.212 106.174C241.38 106.497 241.615 106.75 241.916 106.933C242.224 107.109 242.557 107.197 242.917 107.197C243.313 107.197 243.646 107.105 243.918 106.922C244.189 106.739 244.409 106.504 244.578 106.218L245.436 106.658C245.318 106.929 245.135 107.179 244.886 107.406C244.644 107.626 244.354 107.802 244.017 107.934C243.687 108.066 243.316 108.132 242.906 108.132ZM246.935 108V102.071H247.936V103.16L247.826 103.006C247.965 102.669 248.178 102.419 248.464 102.258C248.75 102.089 249.098 102.005 249.509 102.005H249.872V102.973H249.355C248.937 102.973 248.599 103.105 248.343 103.369C248.086 103.626 247.958 103.992 247.958 104.469V108H246.935ZM253.1 105.701V104.381H254.167V105.701H253.1ZM261.968 108.132C261.389 108.132 260.854 108.029 260.362 107.824C259.878 107.611 259.453 107.314 259.086 106.933C258.727 106.552 258.448 106.104 258.25 105.591C258.052 105.078 257.953 104.517 257.953 103.908C257.953 103.292 258.052 102.727 258.25 102.214C258.448 101.701 258.727 101.253 259.086 100.872C259.446 100.491 259.871 100.197 260.362 99.992C260.854 99.7793 261.389 99.673 261.968 99.673C262.533 99.673 263.039 99.772 263.486 99.97C263.941 100.168 264.322 100.425 264.63 100.74C264.946 101.055 265.169 101.393 265.301 101.752L264.311 102.203C264.121 101.748 263.824 101.382 263.42 101.103C263.017 100.817 262.533 100.674 261.968 100.674C261.396 100.674 260.887 100.81 260.439 101.081C259.999 101.352 259.655 101.73 259.405 102.214C259.156 102.698 259.031 103.263 259.031 103.908C259.031 104.546 259.156 105.107 259.405 105.591C259.655 106.075 259.999 106.453 260.439 106.724C260.887 106.995 261.396 107.131 261.968 107.131C262.533 107.131 263.017 106.992 263.42 106.713C263.824 106.427 264.121 106.057 264.311 105.602L265.301 106.053C265.169 106.412 264.946 106.75 264.63 107.065C264.322 107.38 263.941 107.637 263.486 107.835C263.039 108.033 262.533 108.132 261.968 108.132ZM266.646 108V102.071H267.647V103.16L267.537 103.006C267.677 102.669 267.889 102.419 268.175 102.258C268.461 102.089 268.81 102.005 269.22 102.005H269.583V102.973H269.066C268.648 102.973 268.311 103.105 268.054 103.369C267.798 103.626 267.669 103.992 267.669 104.469V108H266.646ZM273.308 108.132C272.736 108.132 272.219 108 271.757 107.736C271.295 107.465 270.929 107.094 270.657 106.625C270.386 106.156 270.25 105.624 270.25 105.03C270.25 104.436 270.382 103.908 270.646 103.446C270.918 102.984 271.284 102.617 271.746 102.346C272.208 102.075 272.729 101.939 273.308 101.939C273.88 101.939 274.397 102.075 274.859 102.346C275.321 102.61 275.684 102.973 275.948 103.435C276.22 103.897 276.355 104.429 276.355 105.03C276.355 105.631 276.216 106.167 275.937 106.636C275.659 107.098 275.288 107.465 274.826 107.736C274.372 108 273.866 108.132 273.308 108.132ZM273.308 107.142C273.675 107.142 274.005 107.05 274.298 106.867C274.599 106.684 274.834 106.431 275.002 106.108C275.178 105.785 275.266 105.426 275.266 105.03C275.266 104.627 275.178 104.271 275.002 103.963C274.834 103.648 274.599 103.398 274.298 103.215C274.005 103.024 273.675 102.929 273.308 102.929C272.934 102.929 272.597 103.024 272.296 103.215C272.003 103.398 271.768 103.648 271.592 103.963C271.416 104.271 271.328 104.627 271.328 105.03C271.328 105.426 271.416 105.785 271.592 106.108C271.768 106.431 272.003 106.684 272.296 106.867C272.597 107.05 272.934 107.142 273.308 107.142ZM279.812 108.132C279.218 108.132 278.701 107.985 278.261 107.692C277.821 107.399 277.51 107.003 277.326 106.504L278.14 106.108C278.309 106.46 278.54 106.739 278.833 106.944C279.127 107.149 279.453 107.252 279.812 107.252C280.135 107.252 280.403 107.175 280.615 107.021C280.828 106.867 280.934 106.665 280.934 106.416C280.934 106.24 280.883 106.101 280.78 105.998C280.685 105.888 280.568 105.804 280.428 105.745C280.289 105.679 280.161 105.631 280.043 105.602L279.152 105.349C278.617 105.195 278.225 104.975 277.975 104.689C277.733 104.403 277.612 104.069 277.612 103.688C277.612 103.336 277.7 103.032 277.876 102.775C278.06 102.511 278.305 102.306 278.613 102.159C278.929 102.012 279.281 101.939 279.669 101.939C280.19 101.939 280.656 102.071 281.066 102.335C281.484 102.599 281.781 102.969 281.957 103.446L281.121 103.831C280.989 103.523 280.791 103.281 280.527 103.105C280.263 102.922 279.966 102.83 279.636 102.83C279.336 102.83 279.097 102.907 278.921 103.061C278.745 103.208 278.657 103.395 278.657 103.622C278.657 103.791 278.701 103.93 278.789 104.04C278.877 104.143 278.984 104.223 279.108 104.282C279.233 104.333 279.354 104.377 279.471 104.414L280.439 104.7C280.923 104.839 281.297 105.056 281.561 105.349C281.833 105.642 281.968 105.994 281.968 106.405C281.968 106.735 281.877 107.032 281.693 107.296C281.51 107.56 281.257 107.765 280.934 107.912C280.612 108.059 280.238 108.132 279.812 108.132ZM285.431 108.132C284.837 108.132 284.32 107.985 283.88 107.692C283.44 107.399 283.128 107.003 282.945 106.504L283.759 106.108C283.927 106.46 284.158 106.739 284.452 106.944C284.745 107.149 285.071 107.252 285.431 107.252C285.753 107.252 286.021 107.175 286.234 107.021C286.446 106.867 286.553 106.665 286.553 106.416C286.553 106.24 286.501 106.101 286.399 105.998C286.303 105.888 286.186 105.804 286.047 105.745C285.907 105.679 285.779 105.631 285.662 105.602L284.771 105.349C284.235 105.195 283.843 104.975 283.594 104.689C283.352 104.403 283.231 104.069 283.231 103.688C283.231 103.336 283.319 103.032 283.495 102.775C283.678 102.511 283.924 102.306 284.232 102.159C284.547 102.012 284.899 101.939 285.288 101.939C285.808 101.939 286.274 102.071 286.685 102.335C287.103 102.599 287.4 102.969 287.576 103.446L286.74 103.831C286.608 103.523 286.41 103.281 286.146 103.105C285.882 102.922 285.585 102.83 285.255 102.83C284.954 102.83 284.716 102.907 284.54 103.061C284.364 103.208 284.276 103.395 284.276 103.622C284.276 103.791 284.32 103.93 284.408 104.04C284.496 104.143 284.602 104.223 284.727 104.282C284.851 104.333 284.972 104.377 285.09 104.414L286.058 104.7C286.542 104.839 286.916 105.056 287.18 105.349C287.451 105.642 287.587 105.994 287.587 106.405C287.587 106.735 287.495 107.032 287.312 107.296C287.128 107.56 286.875 107.765 286.553 107.912C286.23 108.059 285.856 108.132 285.431 108.132ZM289.003 105.503V104.568H293.128V105.503H289.003ZM294.901 108V99.805H297.794C298.337 99.805 298.814 99.9077 299.224 100.113C299.635 100.318 299.954 100.612 300.181 100.993C300.416 101.374 300.533 101.822 300.533 102.335C300.533 102.848 300.416 103.296 300.181 103.677C299.954 104.051 299.635 104.344 299.224 104.557C298.821 104.762 298.344 104.865 297.794 104.865H295.979V108H294.901ZM295.979 103.875H297.827C298.157 103.875 298.443 103.813 298.685 103.688C298.927 103.563 299.114 103.384 299.246 103.149C299.378 102.914 299.444 102.643 299.444 102.335C299.444 102.02 299.378 101.748 299.246 101.521C299.114 101.286 298.927 101.107 298.685 100.982C298.443 100.857 298.157 100.795 297.827 100.795H295.979V103.875ZM301.87 108V99.673H302.893V108H301.87ZM306.218 108.132C305.83 108.132 305.485 108.062 305.184 107.923C304.891 107.776 304.66 107.578 304.491 107.329C304.323 107.072 304.238 106.779 304.238 106.449C304.238 106.134 304.304 105.851 304.436 105.602C304.576 105.345 304.788 105.129 305.074 104.953C305.368 104.777 305.734 104.652 306.174 104.579L308.374 104.216V105.074L306.405 105.404C306.024 105.47 305.745 105.591 305.569 105.767C305.401 105.943 305.316 106.159 305.316 106.416C305.316 106.658 305.412 106.86 305.602 107.021C305.8 107.182 306.046 107.263 306.339 107.263C306.713 107.263 307.036 107.186 307.307 107.032C307.586 106.871 307.802 106.654 307.956 106.383C308.118 106.112 308.198 105.811 308.198 105.481V103.974C308.198 103.651 308.077 103.391 307.835 103.193C307.601 102.988 307.289 102.885 306.9 102.885C306.563 102.885 306.262 102.973 305.998 103.149C305.742 103.318 305.551 103.545 305.426 103.831L304.535 103.369C304.645 103.098 304.821 102.856 305.063 102.643C305.305 102.423 305.588 102.251 305.91 102.126C306.233 102.001 306.57 101.939 306.922 101.939C307.377 101.939 307.777 102.027 308.121 102.203C308.466 102.372 308.734 102.61 308.924 102.918C309.122 103.219 309.221 103.571 309.221 103.974V108H308.22V106.878L308.407 106.944C308.283 107.179 308.114 107.384 307.901 107.56C307.689 107.736 307.439 107.875 307.153 107.978C306.867 108.081 306.556 108.132 306.218 108.132ZM313.109 108.066C312.53 108.066 312.083 107.901 311.767 107.571C311.459 107.241 311.305 106.775 311.305 106.174V103.05H310.227V102.071H310.447C310.711 102.071 310.92 101.99 311.074 101.829C311.228 101.668 311.305 101.455 311.305 101.191V100.707H312.328V102.071H313.659V103.05H312.328V106.141C312.328 106.339 312.358 106.511 312.416 106.658C312.482 106.805 312.589 106.922 312.735 107.01C312.882 107.091 313.076 107.131 313.318 107.131C313.37 107.131 313.432 107.127 313.505 107.12C313.586 107.113 313.659 107.105 313.725 107.098V108C313.63 108.022 313.524 108.037 313.406 108.044C313.289 108.059 313.19 108.066 313.109 108.066ZM315.689 108V103.05H314.556V102.071H315.689V101.653C315.689 101.228 315.78 100.868 315.964 100.575C316.154 100.282 316.404 100.058 316.712 99.904C317.027 99.75 317.375 99.673 317.757 99.673C317.837 99.673 317.925 99.6803 318.021 99.695C318.123 99.7023 318.208 99.7133 318.274 99.728V100.641C318.215 100.626 318.145 100.619 318.065 100.619C317.984 100.612 317.922 100.608 317.878 100.608C317.54 100.608 317.262 100.689 317.042 100.85C316.829 101.011 316.723 101.279 316.723 101.653V102.071H318.131V103.05H316.723V108H315.689ZM321.97 108.132C321.398 108.132 320.881 108 320.419 107.736C319.957 107.465 319.591 107.094 319.319 106.625C319.048 106.156 318.912 105.624 318.912 105.03C318.912 104.436 319.044 103.908 319.308 103.446C319.58 102.984 319.946 102.617 320.408 102.346C320.87 102.075 321.391 101.939 321.97 101.939C322.542 101.939 323.059 102.075 323.521 102.346C323.983 102.61 324.346 102.973 324.61 103.435C324.882 103.897 325.017 104.429 325.017 105.03C325.017 105.631 324.878 106.167 324.599 106.636C324.321 107.098 323.95 107.465 323.488 107.736C323.034 108 322.528 108.132 321.97 108.132ZM321.97 107.142C322.337 107.142 322.667 107.05 322.96 106.867C323.261 106.684 323.496 106.431 323.664 106.108C323.84 105.785 323.928 105.426 323.928 105.03C323.928 104.627 323.84 104.271 323.664 103.963C323.496 103.648 323.261 103.398 322.96 103.215C322.667 103.024 322.337 102.929 321.97 102.929C321.596 102.929 321.259 103.024 320.958 103.215C320.665 103.398 320.43 103.648 320.254 103.963C320.078 104.271 319.99 104.627 319.99 105.03C319.99 105.426 320.078 105.785 320.254 106.108C320.43 106.431 320.665 106.684 320.958 106.867C321.259 107.05 321.596 107.142 321.97 107.142ZM326.352 108V102.071H327.353V103.16L327.243 103.006C327.382 102.669 327.595 102.419 327.881 102.258C328.167 102.089 328.515 102.005 328.926 102.005H329.289V102.973H328.772C328.354 102.973 328.016 103.105 327.76 103.369C327.503 103.626 327.375 103.992 327.375 104.469V108H326.352ZM330.197 108V102.071H331.198V103.281L331.055 103.094C331.202 102.72 331.437 102.434 331.759 102.236C332.082 102.038 332.445 101.939 332.848 101.939C333.31 101.939 333.725 102.067 334.091 102.324C334.465 102.581 334.722 102.918 334.861 103.336L334.575 103.347C334.729 102.885 334.99 102.537 335.356 102.302C335.723 102.06 336.13 101.939 336.577 101.939C336.988 101.939 337.358 102.034 337.688 102.225C338.026 102.416 338.293 102.68 338.491 103.017C338.689 103.354 338.788 103.736 338.788 104.161V108H337.754V104.491C337.754 104.161 337.696 103.882 337.578 103.655C337.461 103.428 337.3 103.252 337.094 103.127C336.896 102.995 336.662 102.929 336.39 102.929C336.126 102.929 335.888 102.995 335.675 103.127C335.47 103.252 335.305 103.431 335.18 103.666C335.063 103.893 335.004 104.168 335.004 104.491V108H333.97V104.491C333.97 104.161 333.912 103.882 333.794 103.655C333.677 103.428 333.516 103.252 333.31 103.127C333.112 102.995 332.878 102.929 332.606 102.929C332.342 102.929 332.104 102.995 331.891 103.127C331.686 103.252 331.521 103.431 331.396 103.666C331.279 103.893 331.22 104.168 331.22 104.491V108H330.197ZM342.264 108V99.805H344.948C345.776 99.805 346.499 99.9737 347.115 100.311C347.731 100.648 348.207 101.125 348.545 101.741C348.882 102.35 349.051 103.068 349.051 103.897C349.051 104.718 348.882 105.437 348.545 106.053C348.207 106.669 347.731 107.149 347.115 107.494C346.499 107.831 345.776 108 344.948 108H342.264ZM343.342 107.01H344.959C345.567 107.01 346.092 106.882 346.532 106.625C346.979 106.368 347.324 106.009 347.566 105.547C347.808 105.078 347.929 104.528 347.929 103.897C347.929 103.259 347.804 102.709 347.555 102.247C347.313 101.785 346.968 101.429 346.521 101.18C346.081 100.923 345.56 100.795 344.959 100.795H343.342V107.01ZM353.024 108.132C352.452 108.132 351.942 107.996 351.495 107.725C351.048 107.454 350.696 107.083 350.439 106.614C350.182 106.137 350.054 105.606 350.054 105.019C350.054 104.425 350.179 103.897 350.428 103.435C350.685 102.973 351.029 102.61 351.462 102.346C351.902 102.075 352.393 101.939 352.936 101.939C353.376 101.939 353.765 102.02 354.102 102.181C354.447 102.335 354.736 102.548 354.971 102.819C355.213 103.083 355.396 103.387 355.521 103.732C355.653 104.069 355.719 104.421 355.719 104.788C355.719 104.869 355.712 104.96 355.697 105.063C355.69 105.158 355.679 105.25 355.664 105.338H350.802V104.458H355.07L354.586 104.854C354.652 104.473 354.615 104.132 354.476 103.831C354.337 103.53 354.131 103.292 353.86 103.116C353.589 102.94 353.281 102.852 352.936 102.852C352.591 102.852 352.276 102.94 351.99 103.116C351.704 103.292 351.48 103.545 351.319 103.875C351.165 104.198 351.103 104.583 351.132 105.03C351.103 105.463 351.169 105.844 351.33 106.174C351.499 106.497 351.733 106.75 352.034 106.933C352.342 107.109 352.676 107.197 353.035 107.197C353.431 107.197 353.765 107.105 354.036 106.922C354.307 106.739 354.527 106.504 354.696 106.218L355.554 106.658C355.437 106.929 355.253 107.179 355.004 107.406C354.762 107.626 354.472 107.802 354.135 107.934C353.805 108.066 353.435 108.132 353.024 108.132ZM358.595 108L356.274 102.071H357.418L359.277 107.087H358.881L360.751 102.071H361.895L359.563 108H358.595ZM365.431 108.132C364.859 108.132 364.349 107.996 363.902 107.725C363.455 107.454 363.103 107.083 362.846 106.614C362.589 106.137 362.461 105.606 362.461 105.019C362.461 104.425 362.586 103.897 362.835 103.435C363.092 102.973 363.436 102.61 363.869 102.346C364.309 102.075 364.8 101.939 365.343 101.939C365.783 101.939 366.172 102.02 366.509 102.181C366.854 102.335 367.143 102.548 367.378 102.819C367.62 103.083 367.803 103.387 367.928 103.732C368.06 104.069 368.126 104.421 368.126 104.788C368.126 104.869 368.119 104.96 368.104 105.063C368.097 105.158 368.086 105.25 368.071 105.338H363.209V104.458H367.477L366.993 104.854C367.059 104.473 367.022 104.132 366.883 103.831C366.744 103.53 366.538 103.292 366.267 103.116C365.996 102.94 365.688 102.852 365.343 102.852C364.998 102.852 364.683 102.94 364.397 103.116C364.111 103.292 363.887 103.545 363.726 103.875C363.572 104.198 363.51 104.583 363.539 105.03C363.51 105.463 363.576 105.844 363.737 106.174C363.906 106.497 364.14 106.75 364.441 106.933C364.749 107.109 365.083 107.197 365.442 107.197C365.838 107.197 366.172 107.105 366.443 106.922C366.714 106.739 366.934 106.504 367.103 106.218L367.961 106.658C367.844 106.929 367.66 107.179 367.411 107.406C367.169 107.626 366.879 107.802 366.542 107.934C366.212 108.066 365.842 108.132 365.431 108.132ZM369.46 108V99.673H370.483V108H369.46ZM374.886 108.132C374.314 108.132 373.797 108 373.335 107.736C372.873 107.465 372.507 107.094 372.235 106.625C371.964 106.156 371.828 105.624 371.828 105.03C371.828 104.436 371.96 103.908 372.224 103.446C372.496 102.984 372.862 102.617 373.324 102.346C373.786 102.075 374.307 101.939 374.886 101.939C375.458 101.939 375.975 102.075 376.437 102.346C376.899 102.61 377.262 102.973 377.526 103.435C377.798 103.897 377.933 104.429 377.933 105.03C377.933 105.631 377.794 106.167 377.515 106.636C377.237 107.098 376.866 107.465 376.404 107.736C375.95 108 375.444 108.132 374.886 108.132ZM374.886 107.142C375.253 107.142 375.583 107.05 375.876 106.867C376.177 106.684 376.412 106.431 376.58 106.108C376.756 105.785 376.844 105.426 376.844 105.03C376.844 104.627 376.756 104.271 376.58 103.963C376.412 103.648 376.177 103.398 375.876 103.215C375.583 103.024 375.253 102.929 374.886 102.929C374.512 102.929 374.175 103.024 373.874 103.215C373.581 103.398 373.346 103.648 373.17 103.963C372.994 104.271 372.906 104.627 372.906 105.03C372.906 105.426 372.994 105.785 373.17 106.108C373.346 106.431 373.581 106.684 373.874 106.867C374.175 107.05 374.512 107.142 374.886 107.142ZM379.268 110.2V102.071H380.269V103.347L380.137 103.094C380.357 102.742 380.657 102.463 381.039 102.258C381.42 102.045 381.856 101.939 382.348 101.939C382.905 101.939 383.404 102.075 383.844 102.346C384.291 102.617 384.643 102.988 384.9 103.457C385.156 103.919 385.285 104.447 385.285 105.041C385.285 105.62 385.156 106.145 384.9 106.614C384.643 107.083 384.291 107.454 383.844 107.725C383.404 107.996 382.901 108.132 382.337 108.132C381.86 108.132 381.424 108.026 381.028 107.813C380.639 107.6 380.338 107.3 380.126 106.911L380.291 106.735V110.2H379.268ZM382.26 107.142C382.634 107.142 382.967 107.05 383.261 106.867C383.554 106.684 383.781 106.434 383.943 106.119C384.111 105.796 384.196 105.437 384.196 105.041C384.196 104.63 384.111 104.271 383.943 103.963C383.781 103.648 383.554 103.398 383.261 103.215C382.967 103.024 382.634 102.929 382.26 102.929C381.886 102.929 381.548 103.021 381.248 103.204C380.954 103.387 380.72 103.64 380.544 103.963C380.375 104.278 380.291 104.638 380.291 105.041C380.291 105.437 380.375 105.796 380.544 106.119C380.72 106.434 380.954 106.684 381.248 106.867C381.548 107.05 381.886 107.142 382.26 107.142ZM389.354 108.132C388.782 108.132 388.272 107.996 387.825 107.725C387.378 107.454 387.026 107.083 386.769 106.614C386.512 106.137 386.384 105.606 386.384 105.019C386.384 104.425 386.509 103.897 386.758 103.435C387.015 102.973 387.359 102.61 387.792 102.346C388.232 102.075 388.723 101.939 389.266 101.939C389.706 101.939 390.095 102.02 390.432 102.181C390.777 102.335 391.066 102.548 391.301 102.819C391.543 103.083 391.726 103.387 391.851 103.732C391.983 104.069 392.049 104.421 392.049 104.788C392.049 104.869 392.042 104.96 392.027 105.063C392.02 105.158 392.009 105.25 391.994 105.338H387.132V104.458H391.4L390.916 104.854C390.982 104.473 390.945 104.132 390.806 103.831C390.667 103.53 390.461 103.292 390.19 103.116C389.919 102.94 389.611 102.852 389.266 102.852C388.921 102.852 388.606 102.94 388.32 103.116C388.034 103.292 387.81 103.545 387.649 103.875C387.495 104.198 387.433 104.583 387.462 105.03C387.433 105.463 387.499 105.844 387.66 106.174C387.829 106.497 388.063 106.75 388.364 106.933C388.672 107.109 389.006 107.197 389.365 107.197C389.761 107.197 390.095 107.105 390.366 106.922C390.637 106.739 390.857 106.504 391.026 106.218L391.884 106.658C391.767 106.929 391.583 107.179 391.334 107.406C391.092 107.626 390.802 107.802 390.465 107.934C390.135 108.066 389.765 108.132 389.354 108.132ZM393.383 108V102.071H394.384V103.16L394.274 103.006C394.413 102.669 394.626 102.419 394.912 102.258C395.198 102.089 395.546 102.005 395.957 102.005H396.32V102.973H395.803C395.385 102.973 395.047 103.105 394.791 103.369C394.534 103.626 394.406 103.992 394.406 104.469V108H393.383Z"
      fill="#64748B" />
  </g>
  <!-- end of subtitle -->
  <!-- available for hire -->
  <g class="animate-fade-in-right additional">
    <g class="additional__indicator animate-fade-in" transform="translate(0, 4)">
      <circle cx="245" cy="125" r="3" fill="#7733FF" class="animate-ping" />
      <circle cx="245" cy="125" r="2" fill="#7733FF" />
    </g>
    <g filter="url(#filter1_d_1_241)" transform="translate(0, 4)">
      <path
        d="M256.088 128L258.144 122.04H259.552L261.608 128H260.424L260 126.72H257.696L257.264 128H256.088ZM258.008 125.76H259.688L258.696 122.792H259L258.008 125.76ZM263.504 128L261.424 122.04H262.608L264.24 126.976H264.008L265.64 122.04H266.824L264.752 128H263.504ZM266.643 128L268.699 122.04H270.107L272.163 128H270.979L270.555 126.72H268.251L267.819 128H266.643ZM268.563 125.76H270.243L269.251 122.792H269.555L268.563 125.76ZM272.826 128V122.04H273.914V128H272.826ZM275.06 128V122.04H276.148V127.04H278.7V128H275.06ZM278.916 128L280.972 122.04H282.38L284.436 128H283.252L282.828 126.72H280.524L280.092 128H278.916ZM280.836 125.76H282.516L281.524 122.792H281.828L280.836 125.76ZM285.099 128V122.04H287.611C288.006 122.04 288.342 122.109 288.619 122.248C288.902 122.381 289.118 122.573 289.267 122.824C289.422 123.069 289.499 123.368 289.499 123.72C289.499 123.992 289.425 124.248 289.275 124.488C289.131 124.723 288.899 124.917 288.579 125.072V124.568C288.873 124.68 289.105 124.819 289.275 124.984C289.446 125.149 289.566 125.333 289.635 125.536C289.705 125.739 289.739 125.952 289.739 126.176C289.739 126.747 289.55 127.195 289.171 127.52C288.798 127.84 288.278 128 287.611 128H285.099ZM286.187 127.04H287.723C288.006 127.04 288.23 126.963 288.395 126.808C288.566 126.648 288.651 126.437 288.651 126.176C288.651 125.915 288.566 125.704 288.395 125.544C288.23 125.384 288.006 125.304 287.723 125.304H286.187V127.04ZM286.187 124.352H287.667C287.891 124.352 288.07 124.288 288.203 124.16C288.337 124.027 288.403 123.856 288.403 123.648C288.403 123.44 288.337 123.275 288.203 123.152C288.07 123.029 287.891 122.968 287.667 122.968H286.187V124.352ZM290.631 128V122.04H291.719V127.04H294.271V128H290.631ZM294.974 128V122.04H298.934V123H296.062V124.528H298.774V125.488H296.062V127.04H298.934V128H294.974ZM301.154 128V122.04H305.13V123H302.242V124.648H304.77V125.608H302.242V128H301.154ZM308.7 128.096C308.262 128.096 307.854 128.019 307.476 127.864C307.097 127.709 306.766 127.493 306.484 127.216C306.201 126.939 305.98 126.613 305.82 126.24C305.665 125.861 305.588 125.453 305.588 125.016C305.588 124.573 305.665 124.165 305.82 123.792C305.974 123.419 306.193 123.093 306.476 122.816C306.758 122.539 307.089 122.325 307.468 122.176C307.846 122.021 308.257 121.944 308.7 121.944C309.142 121.944 309.553 122.021 309.932 122.176C310.31 122.331 310.641 122.547 310.924 122.824C311.206 123.096 311.425 123.419 311.58 123.792C311.74 124.165 311.82 124.573 311.82 125.016C311.82 125.453 311.74 125.861 311.58 126.24C311.42 126.613 311.198 126.939 310.916 127.216C310.633 127.493 310.302 127.709 309.924 127.864C309.55 128.019 309.142 128.096 308.7 128.096ZM308.7 127.104C308.993 127.104 309.262 127.053 309.508 126.952C309.753 126.845 309.966 126.699 310.148 126.512C310.334 126.325 310.476 126.104 310.572 125.848C310.673 125.592 310.724 125.315 310.724 125.016C310.724 124.717 310.673 124.443 310.572 124.192C310.476 123.936 310.334 123.715 310.148 123.528C309.966 123.336 309.753 123.189 309.508 123.088C309.262 122.987 308.993 122.936 308.7 122.936C308.412 122.936 308.145 122.987 307.9 123.088C307.654 123.189 307.438 123.336 307.252 123.528C307.07 123.715 306.929 123.936 306.828 124.192C306.726 124.443 306.676 124.717 306.676 125.016C306.676 125.315 306.726 125.592 306.828 125.848C306.929 126.104 307.07 126.325 307.252 126.512C307.438 126.699 307.654 126.845 307.9 126.952C308.145 127.053 308.412 127.104 308.7 127.104ZM312.787 128V122.04H315.003C315.408 122.04 315.766 122.115 316.075 122.264C316.39 122.408 316.635 122.621 316.811 122.904C316.987 123.181 317.075 123.52 317.075 123.92C317.075 124.331 316.976 124.68 316.779 124.968C316.587 125.256 316.326 125.469 315.995 125.608L317.363 128H316.131L314.667 125.384L315.371 125.8H313.875V128H312.787ZM313.875 124.84H315.019C315.216 124.84 315.387 124.803 315.531 124.728C315.675 124.648 315.787 124.539 315.867 124.4C315.947 124.261 315.987 124.101 315.987 123.92C315.987 123.733 315.947 123.573 315.867 123.44C315.787 123.301 315.675 123.195 315.531 123.12C315.387 123.04 315.216 123 315.019 123H313.875V124.84ZM319.498 128V122.04H320.586V124.64H323.122V122.04H324.218V128H323.122V125.6H320.586V128H319.498ZM325.365 128V122.04H326.453V128H325.365ZM327.599 128V122.04H329.815C330.221 122.04 330.578 122.115 330.887 122.264C331.202 122.408 331.447 122.621 331.623 122.904C331.799 123.181 331.887 123.52 331.887 123.92C331.887 124.331 331.789 124.68 331.591 124.968C331.399 125.256 331.138 125.469 330.807 125.608L332.175 128H330.943L329.479 125.384L330.183 125.8H328.687V128H327.599ZM328.687 124.84H329.831C330.029 124.84 330.199 124.803 330.343 124.728C330.487 124.648 330.599 124.539 330.679 124.4C330.759 124.261 330.799 124.101 330.799 123.92C330.799 123.733 330.759 123.573 330.679 123.44C330.599 123.301 330.487 123.195 330.343 123.12C330.199 123.04 330.029 123 329.831 123H328.687V124.84ZM332.889 128V122.04H336.849V123H333.977V124.528H336.689V125.488H333.977V127.04H336.849V128H332.889Z"
        fill="#7733FF" />
    </g>
  </g>
  <!-- end of available for hire -->
  <defs>
    <filter id="filter0_f_1_241" x="-217.765" y="-315.703" width="1019.71" height="591.217" filterUnits="userSpaceOnUse"
      color-interpolation-filters="sRGB">
      <feFlood flood-opacity="0" result="BackgroundImageFix" />
      <feBlend mode="normal" in="SourceGraphic" in2="BackgroundImageFix" result="shape" />
      <feGaussianBlur stdDeviation="60" result="effect1_foregroundBlur_1_241" />
    </filter>
    <filter id="filter1_d_1_241" x="252.088" y="121.944" width="88.7605" height="14.152" filterUnits="userSpaceOnUse"
      color-interpolation-filters="sRGB">
      <feFlood flood-opacity="0" result="BackgroundImageFix" />
      <feColorMatrix in="SourceAlpha" type="matrix" values="0 0 0 0 0 0 0 0 0 0 0 0 0 0 0 0 0 0 127 0"
        result="hardAlpha" />
      <feOffset dy="4" />
      <feGaussianBlur stdDeviation="2" />
      <feComposite in2="hardAlpha" operator="out" />
      <feColorMatrix type="matrix" values="0 0 0 0 0 0 0 0 0 0 0 0 0 0 0 0 0 0 0.25 0" />
      <feBlend mode="normal" in2="BackgroundImageFix" result="effect1_dropShadow_1_241" />
      <feBlend mode="normal" in="SourceGraphic" in2="effect1_dropShadow_1_241" result="shape" />
    </filter>
    <radialGradient id="paint0_angular_1_241" cx="0" cy="0" r="1" gradientUnits="userSpaceOnUse"
      gradientTransform="translate(291.821 -23.5992) rotate(89.8965) scale(99.0993 237.18)">
      <!-- <stop stop-color="#FE79B9" />
      <stop offset="0.416667" stop-color="#AD00FF" />
      <stop offset="1" stop-color="#2489FF" /> -->
      <stop stop-color="#e2e8f0" />
      <stop offset="0.416667" stop-color="#e2e8f0" />
      <stop offset="1" stop-color="#e2e8f0" />
    </radialGradient>
    <linearGradient id="paint1_linear_1_241" x1="297.5" y1="0" x2="297.5" y2="160" gradientUnits="userSpaceOnUse">
      <stop stop-color="transparent" stop-opacity="0" />
      <stop offset="1" stop-color="transparent" />
    </linearGradient>
    <clipPath id="clip0_1_241">
      <rect width="595" height="160" rx="25" fill="transparent" />
    </clipPath>
  </defs>
</svg>